# Blender v2.79 (sub 0) OBJ File: 'modeltdoor.blend'
# www.blender.org
mtllib modeltdoor.mtl
o modeltdoor
v -0.031250 0.375000 -0.218750
v -0.031250 0.375000 0.218750
v 0.031250 0.375000 0.218750
v 0.031250 0.375000 -0.218750
v 0.031250 -0.437500 -0.218750
v 0.031250 -0.437500 0.218750
v -0.031250 -0.437500 0.218750
v -0.031250 -0.437500 -0.218750
v -0.031250 0.375000 -0.343750
v -0.031250 0.375000 -0.218750
v 0.031250 0.375000 -0.218750
v 0.031250 0.375000 -0.343750
v 0.031250 -0.312500 -0.343750
v 0.031250 -0.437500 -0.218750
v -0.031250 -0.437500 -0.218750
v -0.031250 -0.312500 -0.343750
v -0.031250 0.375000 0.218750
v -0.031250 0.375000 0.343750
v 0.031250 0.375000 0.343750
v 0.031250 0.375000 0.218750
v 0.031250 -0.437500 0.218750
v 0.031250 -0.312500 0.343750
v -0.031250 -0.312500 0.343750
v -0.031250 -0.437500 0.218750
v -0.093750 -0.000000 -0.281250
v -0.093750 0.062500 -0.281250
v -0.031250 0.062500 -0.281250
v -0.031250 -0.000000 -0.281250
v -0.031250 -0.000000 -0.156250
v -0.031250 0.062500 -0.281250
v -0.093750 0.062500 -0.281250
v -0.093750 -0.000000 -0.156250
vt 1.501953 0.996094
vt 1.508789 0.996094
vt 1.508789 0.998047
vt 1.501953 0.998047
vt 1.508789 0.996094
vt 1.515625 0.996094
vt 1.515625 0.998047
vt 1.508789 0.998047
vt 1.501953 0.970703
vt 1.508789 0.970703
vt 1.516602 0.996094
vt 1.509766 0.996094
vt 1.509766 0.970703
vt 1.516602 0.970703
vt 1.500977 0.996094
vt 1.500977 0.970703
vt 1.525391 0.996094
vt 1.527344 0.996094
vt 1.527344 0.998047
vt 1.525391 0.998047
vt 1.527344 0.996094
vt 1.529297 0.996094
vt 1.529297 0.998047
vt 1.527344 0.998047
vt 1.525391 0.970703
vt 1.527344 0.970703
vt 1.530273 0.996094
vt 1.528320 0.996094
vt 1.528320 0.970703
vt 1.530273 0.970703
vt 1.524414 0.996094
vt 1.524414 0.970703
vt 1.533203 0.996094
vt 1.535156 0.996094
vt 1.535156 0.998047
vt 1.533203 0.998047
vt 1.535156 0.996094
vt 1.537109 0.996094
vt 1.537109 0.998047
vt 1.535156 0.998047
vt 1.533203 0.970703
vt 1.535156 0.970703
vt 1.538086 0.996094
vt 1.536133 0.996094
vt 1.536133 0.970703
vt 1.538086 0.970703
vt 1.532227 0.996094
vt 1.532227 0.970703
vt 1.134766 0.902344
vt 1.135742 0.902344
vt 1.135742 0.904297
vt 1.134766 0.904297
vt 1.135742 0.902344
vt 1.136719 0.902344
vt 1.136719 0.904297
vt 1.135742 0.904297
vt 1.134766 0.898438
vt 1.135742 0.898438
vt 1.137695 0.902344
vt 1.136719 0.902344
vt 1.136719 0.898438
vt 1.137695 0.898438
vt 1.133789 0.902344
vt 1.133789 0.898438
vn 0.0000 1.0000 0.0000
vn 0.0000 -1.0000 0.0000
vn -1.0000 -0.0000 -0.0000
vn 1.0000 0.0000 0.0000
vn 0.0000 0.0000 1.0000
vn 0.0000 0.0000 -1.0000
vn 0.0000 -0.7071 -0.7071
vn 0.0000 -0.7071 0.7071
vn -0.0000 0.8944 0.4472
usemtl ModelMaterial
s off
f 1/1/1 2/2/1 3/3/1 4/4/1
f 5/5/2 6/6/2 7/7/2 8/8/2
f 2/2/3 1/1/3 8/9/3 7/10/3
f 4/11/4 3/12/4 6/13/4 5/14/4
f 3/12/5 2/2/5 7/10/5 6/13/5
f 1/1/6 4/15/6 5/16/6 8/9/6
f 9/17/1 10/18/1 11/19/1 12/20/1
f 13/21/7 14/22/7 15/23/7 16/24/7
f 10/18/3 9/17/3 16/25/3 15/26/3
f 12/27/4 11/28/4 14/29/4 13/30/4
f 11/28/5 10/18/5 15/26/5 14/29/5
f 9/17/6 12/31/6 13/32/6 16/25/6
f 17/33/1 18/34/1 19/35/1 20/36/1
f 21/37/8 22/38/8 23/39/8 24/40/8
f 18/34/3 17/33/3 24/41/3 23/42/3
f 20/43/4 19/44/4 22/45/4 21/46/4
f 19/44/5 18/34/5 23/42/5 22/45/5
f 17/33/6 20/47/6 21/48/6 24/41/6
f 25/49/6 26/50/6 27/51/6 28/52/6
f 29/53/9 30/54/9 31/55/9 32/56/9
f 26/50/3 25/49/3 32/57/3 31/58/3
f 28/59/4 27/60/4 30/61/4 29/62/4
f 27/60/5 26/50/5 31/58/5 30/61/5
f 25/49/2 28/63/2 29/64/2 32/57/2
