# Blender v2.79 (sub 0) OBJ File: 'ryzerstandardwheel.blend'
# www.blender.org
mtllib ryzerstandardwheel.mtl
o bodyModel
v -0.018750 0.018750 -0.281250
v -0.018750 0.018750 0.281250
v 0.018750 0.018750 0.281250
v 0.018750 0.018750 -0.281250
v 0.018750 -0.018750 -0.281250
v 0.018750 -0.018750 0.281250
v -0.018750 -0.018750 0.281250
v -0.018750 -0.018750 -0.281250
v -0.018750 -0.124387 -0.252945
v -0.018750 0.156863 0.234195
v 0.018750 0.156863 0.234195
v 0.018750 -0.124387 -0.252945
v 0.018750 -0.156863 -0.234195
v 0.018750 0.124387 0.252945
v -0.018750 0.124387 0.252945
v -0.018750 -0.156863 -0.234195
v -0.018750 -0.234195 -0.156863
v -0.018750 0.252945 0.124387
v 0.018750 0.252945 0.124387
v 0.018750 -0.234195 -0.156863
v 0.018750 -0.252945 -0.124387
v 0.018750 0.234195 0.156863
v -0.018750 0.234195 0.156863
v -0.018750 -0.252945 -0.124387
v -0.018750 -0.252945 0.124387
v -0.018750 0.234195 -0.156863
v 0.018750 0.234195 -0.156863
v 0.018750 -0.252945 0.124387
v 0.018750 -0.234195 0.156863
v 0.018750 0.252945 -0.124387
v -0.018750 0.252945 -0.124387
v -0.018750 -0.234195 0.156863
v -0.031250 0.207632 -0.202871
v -0.031250 0.250821 -0.253065
v 0.031250 0.250821 -0.253065
v 0.031250 0.207632 -0.202871
v 0.031250 0.279507 -0.078379
v 0.031250 0.344571 -0.090685
v -0.031250 0.344571 -0.090685
v -0.031250 0.279507 -0.078379
v -0.031250 0.093750 -0.031250
v -0.031250 0.093750 0.031250
v 0.031250 0.093750 0.031250
v 0.031250 0.093750 -0.031250
v 0.031250 0.031250 -0.093750
v 0.031250 0.031250 0.093750
v -0.031250 0.031250 0.093750
v -0.031250 0.031250 -0.093750
v -0.018750 -0.156863 0.234195
v -0.018750 0.124387 -0.252945
v 0.018750 0.124387 -0.252945
v 0.018750 -0.156863 0.234195
v 0.018750 -0.124387 0.252945
v 0.018750 0.156863 -0.234195
v -0.018750 0.156863 -0.234195
v -0.018750 -0.124387 0.252945
v -0.031250 -0.093750 0.031250
v -0.031250 -0.093750 -0.031250
v 0.031250 -0.093750 -0.031250
v 0.031250 -0.093750 0.031250
v 0.031250 -0.031250 0.093750
v 0.031250 -0.031250 -0.093750
v -0.031250 -0.031250 -0.093750
v -0.031250 -0.031250 0.093750
v -0.031250 0.031250 -0.093750
v -0.031250 0.031250 0.093750
v 0.031250 0.031250 0.093750
v 0.031250 0.031250 -0.093750
v 0.031250 -0.031250 -0.093750
v 0.031250 -0.031250 0.093750
v -0.031250 -0.031250 0.093750
v -0.031250 -0.031250 -0.093750
v -0.031250 -0.281250 0.078125
v -0.031250 -0.343750 0.090625
v 0.031250 -0.343750 0.090625
v 0.031250 -0.281250 0.078125
v 0.031250 -0.281250 -0.078125
v 0.031250 -0.343750 -0.090625
v -0.031250 -0.343750 -0.090625
v -0.031250 -0.281250 -0.078125
v -0.059375 0.012500 -0.012500
v -0.059375 0.012500 0.012500
v 0.059375 0.012500 0.012500
v 0.059375 0.012500 -0.012500
v 0.059375 -0.012500 -0.012500
v 0.059375 -0.012500 0.012500
v -0.059375 -0.012500 0.012500
v -0.059375 -0.012500 -0.012500
v -0.031250 -0.078125 -0.281250
v -0.031250 -0.090625 -0.343750
v 0.031250 -0.090625 -0.343750
v 0.031250 -0.078125 -0.281250
v 0.031250 0.078125 -0.281250
v 0.031250 0.090625 -0.343750
v -0.031250 0.090625 -0.343750
v -0.031250 0.078125 -0.281250
v -0.031250 0.078125 0.281250
v -0.031250 0.090625 0.343750
v 0.031250 0.090625 0.343750
v 0.031250 0.078125 0.281250
v 0.031250 -0.078125 0.281250
v 0.031250 -0.090625 0.343750
v -0.031250 -0.090625 0.343750
v -0.031250 -0.078125 0.281250
v -0.031250 0.078379 -0.279507
v -0.031250 0.090685 -0.344571
v 0.031250 0.090685 -0.344571
v 0.031250 0.078379 -0.279507
v 0.031250 0.208283 -0.204507
v 0.031250 0.250359 -0.252384
v -0.031250 0.250359 -0.252384
v -0.031250 0.208283 -0.204507
v -0.031250 -0.202871 -0.207632
v -0.031250 -0.253065 -0.250821
v 0.031250 -0.253065 -0.250821
v 0.031250 -0.202871 -0.207632
v 0.031250 -0.078379 -0.279507
v 0.031250 -0.090685 -0.344571
v -0.031250 -0.090685 -0.344571
v -0.031250 -0.078379 -0.279507
v -0.031250 -0.279507 -0.078379
v -0.031250 -0.344571 -0.090685
v 0.031250 -0.344571 -0.090685
v 0.031250 -0.279507 -0.078379
v 0.031250 -0.204507 -0.208283
v 0.031250 -0.252384 -0.250359
v -0.031250 -0.252384 -0.250359
v -0.031250 -0.204507 -0.208283
v -0.018750 -0.281250 -0.018750
v -0.018750 0.281250 -0.018750
v 0.018750 0.281250 -0.018750
v 0.018750 -0.281250 -0.018750
v 0.018750 -0.281250 0.018750
v 0.018750 0.281250 0.018750
v -0.018750 0.281250 0.018750
v -0.018750 -0.281250 0.018750
v -0.031250 -0.207632 0.202871
v -0.031250 -0.250821 0.253065
v 0.031250 -0.250821 0.253065
v 0.031250 -0.207632 0.202871
v 0.031250 -0.279507 0.078379
v 0.031250 -0.344571 0.090685
v -0.031250 -0.344571 0.090685
v -0.031250 -0.279507 0.078379
v -0.031250 -0.078379 0.279507
v -0.031250 -0.090685 0.344571
v 0.031250 -0.090685 0.344571
v 0.031250 -0.078379 0.279507
v 0.031250 -0.208283 0.204507
v 0.031250 -0.250359 0.252384
v -0.031250 -0.250359 0.252384
v -0.031250 -0.208283 0.204507
v -0.031250 0.202871 0.207632
v -0.031250 0.253065 0.250821
v 0.031250 0.253065 0.250821
v 0.031250 0.202871 0.207632
v 0.031250 0.078379 0.279507
v 0.031250 0.090685 0.344571
v -0.031250 0.090685 0.344571
v -0.031250 0.078379 0.279507
v -0.031250 0.279507 0.078379
v -0.031250 0.344571 0.090685
v 0.031250 0.344571 0.090685
v 0.031250 0.279507 0.078379
v 0.031250 0.204507 0.208283
v 0.031250 0.252384 0.250359
v -0.031250 0.252384 0.250359
v -0.031250 0.204507 0.208283
v -0.031250 0.281250 -0.078125
v -0.031250 0.343750 -0.090625
v 0.031250 0.343750 -0.090625
v 0.031250 0.281250 -0.078125
v 0.031250 0.281250 0.078125
v 0.031250 0.343750 0.090625
v -0.031250 0.343750 0.090625
v -0.031250 0.281250 0.078125
vt 1.580078 0.996094
vt 1.588867 0.996094
vt 1.588867 0.998047
vt 1.580078 0.998047
vt 1.588867 0.996094
vt 1.597656 0.996094
vt 1.597656 0.998047
vt 1.588867 0.998047
vt 1.580078 0.994141
vt 1.588867 0.994141
vt 1.598633 0.996094
vt 1.589844 0.996094
vt 1.589844 0.994141
vt 1.598633 0.994141
vt 1.579102 0.996094
vt 1.579102 0.994141
vt 1.814453 0.996094
vt 1.823242 0.996094
vt 1.823242 0.998047
vt 1.814453 0.998047
vt 1.823242 0.996094
vt 1.832031 0.996094
vt 1.832031 0.998047
vt 1.823242 0.998047
vt 1.814453 0.994141
vt 1.823242 0.994141
vt 1.833008 0.996094
vt 1.824219 0.996094
vt 1.824219 0.994141
vt 1.833008 0.994141
vt 1.813477 0.996094
vt 1.813477 0.994141
vt 1.189453 0.980469
vt 1.198242 0.980469
vt 1.198242 0.982422
vt 1.189453 0.982422
vt 1.198242 0.980469
vt 1.207031 0.980469
vt 1.207031 0.982422
vt 1.198242 0.982422
vt 1.189453 0.978516
vt 1.198242 0.978516
vt 1.208008 0.980469
vt 1.199219 0.980469
vt 1.199219 0.978516
vt 1.208008 0.978516
vt 1.188477 0.980469
vt 1.188477 0.978516
vt 1.822266 0.980469
vt 1.831055 0.980469
vt 1.831055 0.982422
vt 1.822266 0.982422
vt 1.831055 0.980469
vt 1.839844 0.980469
vt 1.839844 0.982422
vt 1.831055 0.982422
vt 1.822266 0.978516
vt 1.831055 0.978516
vt 1.840820 0.980469
vt 1.832031 0.980469
vt 1.832031 0.978516
vt 1.840820 0.978516
vt 1.821289 0.980469
vt 1.821289 0.978516
vt 1.994141 0.980469
vt 1.995117 0.980469
vt 1.995117 0.982422
vt 1.994141 0.982422
vt 1.995117 0.980469
vt 1.996094 0.980469
vt 1.996094 0.982422
vt 1.995117 0.982422
vt 1.994141 0.974609
vt 1.995117 0.974609
vt 1.997070 0.980469
vt 1.996094 0.980469
vt 1.996094 0.974609
vt 1.997070 0.974609
vt 1.993164 0.980469
vt 1.993164 0.974609
vt 1.595703 0.964844
vt 1.598633 0.964844
vt 1.598633 0.966797
vt 1.595703 0.966797
vt 1.598633 0.964844
vt 1.601562 0.964844
vt 1.601562 0.966797
vt 1.598633 0.966797
vt 1.595703 0.958984
vt 1.598633 0.958984
vt 1.602539 0.964844
vt 1.599609 0.964844
vt 1.599609 0.958984
vt 1.602539 0.958984
vt 1.594727 0.964844
vt 1.594727 0.958984
vt 1.611328 0.964844
vt 1.620117 0.964844
vt 1.620117 0.966797
vt 1.611328 0.966797
vt 1.620117 0.964844
vt 1.628906 0.964844
vt 1.628906 0.966797
vt 1.620117 0.966797
vt 1.611328 0.962891
vt 1.620117 0.962891
vt 1.629883 0.964844
vt 1.621094 0.964844
vt 1.621094 0.962891
vt 1.629883 0.962891
vt 1.610352 0.964844
vt 1.610352 0.962891
vt 1.736328 0.964844
vt 1.739258 0.964844
vt 1.739258 0.966797
vt 1.736328 0.966797
vt 1.739258 0.964844
vt 1.742188 0.964844
vt 1.742188 0.966797
vt 1.739258 0.966797
vt 1.736328 0.958984
vt 1.739258 0.958984
vt 1.743164 0.964844
vt 1.740234 0.964844
vt 1.740234 0.958984
vt 1.743164 0.958984
vt 1.735352 0.964844
vt 1.735352 0.958984
vt 1.908203 0.964844
vt 1.911133 0.964844
vt 1.911133 0.966797
vt 1.908203 0.966797
vt 1.911133 0.964844
vt 1.914062 0.964844
vt 1.914062 0.966797
vt 1.911133 0.966797
vt 1.908203 0.962891
vt 1.911133 0.962891
vt 1.915039 0.964844
vt 1.912109 0.964844
vt 1.912109 0.962891
vt 1.915039 0.962891
vt 1.907227 0.964844
vt 1.907227 0.962891
vt 1.244141 0.949219
vt 1.245117 0.949219
vt 1.245117 0.951172
vt 1.244141 0.951172
vt 1.245117 0.949219
vt 1.246094 0.949219
vt 1.246094 0.951172
vt 1.245117 0.951172
vt 1.244141 0.943359
vt 1.245117 0.943359
vt 1.247070 0.949219
vt 1.246094 0.949219
vt 1.246094 0.943359
vt 1.247070 0.943359
vt 1.243164 0.949219
vt 1.243164 0.943359
vt 1.432617 0.947266
vt 1.433594 0.947266
vt 1.433594 0.951172
vt 1.432617 0.951172
vt 1.433594 0.947266
vt 1.434570 0.947266
vt 1.434570 0.951172
vt 1.433594 0.951172
vt 1.432617 0.945312
vt 1.433594 0.945312
vt 1.436523 0.947266
vt 1.435547 0.947266
vt 1.435547 0.945312
vt 1.436523 0.945312
vt 1.430664 0.947266
vt 1.430664 0.945312
vt 1.439453 0.949219
vt 1.440430 0.949219
vt 1.440430 0.951172
vt 1.439453 0.951172
vt 1.440430 0.949219
vt 1.441406 0.949219
vt 1.441406 0.951172
vt 1.440430 0.951172
vt 1.439453 0.943359
vt 1.440430 0.943359
vt 1.442383 0.949219
vt 1.441406 0.949219
vt 1.441406 0.943359
vt 1.442383 0.943359
vt 1.438477 0.949219
vt 1.438477 0.943359
vt 1.587891 0.949219
vt 1.588867 0.949219
vt 1.588867 0.951172
vt 1.587891 0.951172
vt 1.588867 0.949219
vt 1.589844 0.949219
vt 1.589844 0.951172
vt 1.588867 0.951172
vt 1.587891 0.943359
vt 1.588867 0.943359
vt 1.590820 0.949219
vt 1.589844 0.949219
vt 1.589844 0.943359
vt 1.590820 0.943359
vt 1.586914 0.949219
vt 1.586914 0.943359
vt 1.619141 0.949219
vt 1.620117 0.949219
vt 1.620117 0.951172
vt 1.619141 0.951172
vt 1.620117 0.949219
vt 1.621094 0.949219
vt 1.621094 0.951172
vt 1.620117 0.951172
vt 1.619141 0.943359
vt 1.620117 0.943359
vt 1.622070 0.949219
vt 1.621094 0.949219
vt 1.621094 0.943359
vt 1.622070 0.943359
vt 1.618164 0.949219
vt 1.618164 0.943359
vt 1.650391 0.949219
vt 1.651367 0.949219
vt 1.651367 0.951172
vt 1.650391 0.951172
vt 1.651367 0.949219
vt 1.652344 0.949219
vt 1.652344 0.951172
vt 1.651367 0.951172
vt 1.650391 0.943359
vt 1.651367 0.943359
vt 1.653320 0.949219
vt 1.652344 0.949219
vt 1.652344 0.943359
vt 1.653320 0.943359
vt 1.649414 0.949219
vt 1.649414 0.943359
vt 1.658203 0.949219
vt 1.659180 0.949219
vt 1.659180 0.951172
vt 1.658203 0.951172
vt 1.659180 0.949219
vt 1.660156 0.949219
vt 1.660156 0.951172
vt 1.659180 0.951172
vt 1.658203 0.943359
vt 1.659180 0.943359
vt 1.661133 0.949219
vt 1.660156 0.949219
vt 1.660156 0.943359
vt 1.661133 0.943359
vt 1.657227 0.949219
vt 1.657227 0.943359
vt 1.673828 0.949219
vt 1.682617 0.949219
vt 1.682617 0.951172
vt 1.673828 0.951172
vt 1.682617 0.949219
vt 1.691406 0.949219
vt 1.691406 0.951172
vt 1.682617 0.951172
vt 1.673828 0.947266
vt 1.682617 0.947266
vt 1.692383 0.949219
vt 1.683594 0.949219
vt 1.683594 0.947266
vt 1.692383 0.947266
vt 1.672852 0.949219
vt 1.672852 0.947266
vt 1.697266 0.949219
vt 1.698242 0.949219
vt 1.698242 0.951172
vt 1.697266 0.951172
vt 1.698242 0.949219
vt 1.699219 0.949219
vt 1.699219 0.951172
vt 1.698242 0.951172
vt 1.697266 0.943359
vt 1.698242 0.943359
vt 1.700195 0.949219
vt 1.699219 0.949219
vt 1.699219 0.943359
vt 1.700195 0.943359
vt 1.696289 0.949219
vt 1.696289 0.943359
vt 1.830078 0.949219
vt 1.831055 0.949219
vt 1.831055 0.951172
vt 1.830078 0.951172
vt 1.831055 0.949219
vt 1.832031 0.949219
vt 1.832031 0.951172
vt 1.831055 0.951172
vt 1.830078 0.943359
vt 1.831055 0.943359
vt 1.833008 0.949219
vt 1.832031 0.949219
vt 1.832031 0.943359
vt 1.833008 0.943359
vt 1.829102 0.949219
vt 1.829102 0.943359
vt 1.158203 0.933594
vt 1.159180 0.933594
vt 1.159180 0.935547
vt 1.158203 0.935547
vt 1.159180 0.933594
vt 1.160156 0.933594
vt 1.160156 0.935547
vt 1.159180 0.935547
vt 1.158203 0.927734
vt 1.159180 0.927734
vt 1.161133 0.933594
vt 1.160156 0.933594
vt 1.160156 0.927734
vt 1.161133 0.927734
vt 1.157227 0.933594
vt 1.157227 0.927734
vt 1.212891 0.933594
vt 1.213867 0.933594
vt 1.213867 0.935547
vt 1.212891 0.935547
vt 1.213867 0.933594
vt 1.214844 0.933594
vt 1.214844 0.935547
vt 1.213867 0.935547
vt 1.212891 0.927734
vt 1.213867 0.927734
vt 1.215820 0.933594
vt 1.214844 0.933594
vt 1.214844 0.927734
vt 1.215820 0.927734
vt 1.211914 0.933594
vt 1.211914 0.927734
vt 1.572266 0.933594
vt 1.573242 0.933594
vt 1.573242 0.935547
vt 1.572266 0.935547
vt 1.573242 0.933594
vt 1.574219 0.933594
vt 1.574219 0.935547
vt 1.573242 0.935547
vt 1.572266 0.927734
vt 1.573242 0.927734
vt 1.575195 0.933594
vt 1.574219 0.933594
vt 1.574219 0.927734
vt 1.575195 0.927734
vt 1.571289 0.933594
vt 1.571289 0.927734
vn -0.0000 1.0000 0.0000
vn 0.0000 -1.0000 -0.0000
vn -1.0000 -0.0000 -0.0000
vn 1.0000 0.0000 0.0000
vn -0.0000 0.0000 1.0000
vn -0.0000 0.0000 -1.0000
vn 0.0000 0.8660 -0.5000
vn 0.0000 -0.8660 0.5000
vn 0.0000 0.5000 0.8660
vn 0.0000 -0.5000 -0.8660
vn 0.0000 0.5000 -0.8660
vn 0.0000 -0.5000 0.8660
vn 0.0000 0.8660 0.5000
vn 0.0000 -0.8660 -0.5000
vn 0.0000 -0.7580 -0.6522
vn 0.0000 0.1858 0.9826
vn -0.0000 0.7071 0.7071
vn -0.0000 0.7071 -0.7071
vn 0.0000 -0.7071 -0.7071
vn 0.0000 -0.7071 0.7071
vn 0.0000 0.1961 0.9806
vn 0.0000 0.1961 -0.9806
vn 0.0000 -0.9806 0.1961
vn -0.0000 0.9806 0.1961
vn -0.0000 0.9806 -0.1961
vn 0.0000 -0.9806 -0.1961
vn 0.0000 -0.9826 -0.1858
vn 0.0000 0.7511 0.6601
vn 0.0000 -0.6522 0.7580
vn -0.0000 0.9826 -0.1858
vn 0.0000 -0.1858 0.9826
vn 0.0000 0.6601 -0.7511
vn 0.0000 0.7580 0.6522
vn 0.0000 -0.1858 -0.9826
vn -0.0000 0.9826 0.1858
vn 0.0000 -0.7511 -0.6601
vn 0.0000 0.6522 -0.7580
vn 0.0000 -0.9826 0.1858
vn 0.0000 0.1858 -0.9826
vn 0.0000 -0.6601 0.7511
vn 0.0000 -0.1961 -0.9806
vn 0.0000 -0.1961 0.9806
usemtl ModelMaterial
s off
f 1/1/1 2/2/1 3/3/1 4/4/1
f 5/5/2 6/6/2 7/7/2 8/8/2
f 2/2/3 1/1/3 8/9/3 7/10/3
f 4/11/4 3/12/4 6/13/4 5/14/4
f 3/12/5 2/2/5 7/10/5 6/13/5
f 1/1/6 4/15/6 5/16/6 8/9/6
f 9/17/7 10/18/7 11/19/7 12/20/7
f 13/21/8 14/22/8 15/23/8 16/24/8
f 10/18/3 9/17/3 16/25/3 15/26/3
f 12/27/4 11/28/4 14/29/4 13/30/4
f 11/28/9 10/18/9 15/26/9 14/29/9
f 9/17/10 12/31/10 13/32/10 16/25/10
f 17/33/11 18/34/11 19/35/11 20/36/11
f 21/37/12 22/38/12 23/39/12 24/40/12
f 18/34/3 17/33/3 24/41/3 23/42/3
f 20/43/4 19/44/4 22/45/4 21/46/4
f 19/44/13 18/34/13 23/42/13 22/45/13
f 17/33/14 20/47/14 21/48/14 24/41/14
f 25/49/10 26/50/10 27/51/10 28/52/10
f 29/53/9 30/54/9 31/55/9 32/56/9
f 26/50/3 25/49/3 32/57/3 31/58/3
f 28/59/4 27/60/4 30/61/4 29/62/4
f 27/60/7 26/50/7 31/58/7 30/61/7
f 25/49/8 28/63/8 29/64/8 32/57/8
f 33/65/15 34/66/15 35/67/15 36/68/15
f 37/69/16 38/70/16 39/71/16 40/72/16
f 34/66/3 33/65/3 40/73/3 39/74/3
f 36/75/4 35/76/4 38/77/4 37/78/4
f 35/76/7 34/66/7 39/74/7 38/77/7
f 33/65/8 36/79/8 37/80/8 40/73/8
f 41/81/1 42/82/1 43/83/1 44/84/1
f 45/85/2 46/86/2 47/87/2 48/88/2
f 42/82/3 41/81/3 48/89/3 47/90/3
f 44/91/4 43/92/4 46/93/4 45/94/4
f 43/92/17 42/82/17 47/90/17 46/93/17
f 41/81/18 44/95/18 45/96/18 48/89/18
f 49/97/14 50/98/14 51/99/14 52/100/14
f 53/101/13 54/102/13 55/103/13 56/104/13
f 50/98/3 49/97/3 56/105/3 55/106/3
f 52/107/4 51/108/4 54/109/4 53/110/4
f 51/108/11 50/98/11 55/106/11 54/109/11
f 49/97/12 52/111/12 53/112/12 56/105/12
f 57/113/2 58/114/2 59/115/2 60/116/2
f 61/117/1 62/118/1 63/119/1 64/120/1
f 58/114/3 57/113/3 64/121/3 63/122/3
f 60/123/4 59/124/4 62/125/4 61/126/4
f 59/124/19 58/114/19 63/122/19 62/125/19
f 57/113/20 60/127/20 61/128/20 64/121/20
f 65/129/1 66/130/1 67/131/1 68/132/1
f 69/133/2 70/134/2 71/135/2 72/136/2
f 66/130/3 65/129/3 72/137/3 71/138/3
f 68/139/4 67/140/4 70/141/4 69/142/4
f 67/140/5 66/130/5 71/138/5 70/141/5
f 65/129/6 68/143/6 69/144/6 72/137/6
f 73/145/21 74/146/21 75/147/21 76/148/21
f 77/149/22 78/150/22 79/151/22 80/152/22
f 74/146/3 73/145/3 80/153/3 79/154/3
f 76/155/4 75/156/4 78/157/4 77/158/4
f 75/156/2 74/146/2 79/154/2 78/157/2
f 73/145/1 76/159/1 77/160/1 80/153/1
f 81/161/1 82/162/1 83/163/1 84/164/1
f 85/165/2 86/166/2 87/167/2 88/168/2
f 82/162/3 81/161/3 88/169/3 87/170/3
f 84/171/4 83/172/4 86/173/4 85/174/4
f 83/172/5 82/162/5 87/170/5 86/173/5
f 81/161/6 84/175/6 85/176/6 88/169/6
f 89/177/23 90/178/23 91/179/23 92/180/23
f 93/181/24 94/182/24 95/183/24 96/184/24
f 90/178/3 89/177/3 96/185/3 95/186/3
f 92/187/4 91/188/4 94/189/4 93/190/4
f 91/188/6 90/178/6 95/186/6 94/189/6
f 89/177/5 92/191/5 93/192/5 96/185/5
f 97/193/25 98/194/25 99/195/25 100/196/25
f 101/197/26 102/198/26 103/199/26 104/200/26
f 98/194/3 97/193/3 104/201/3 103/202/3
f 100/203/4 99/204/4 102/205/4 101/206/4
f 99/204/5 98/194/5 103/202/5 102/205/5
f 97/193/6 100/207/6 101/208/6 104/201/6
f 105/209/27 106/210/27 107/211/27 108/212/27
f 109/213/28 110/214/28 111/215/28 112/216/28
f 106/210/3 105/209/3 112/217/3 111/218/3
f 108/219/4 107/220/4 110/221/4 109/222/4
f 107/220/11 106/210/11 111/218/11 110/221/11
f 105/209/12 108/223/12 109/224/12 112/217/12
f 113/225/29 114/226/29 115/227/29 116/228/29
f 117/229/30 118/230/30 119/231/30 120/232/30
f 114/226/3 113/225/3 120/233/3 119/234/3
f 116/235/4 115/236/4 118/237/4 117/238/4
f 115/236/10 114/226/10 119/234/10 118/237/10
f 113/225/9 116/239/9 117/240/9 120/233/9
f 121/241/31 122/242/31 123/243/31 124/244/31
f 125/245/32 126/246/32 127/247/32 128/248/32
f 122/242/3 121/241/3 128/249/3 127/250/3
f 124/251/4 123/252/4 126/253/4 125/254/4
f 123/252/14 122/242/14 127/250/14 126/253/14
f 121/241/13 124/255/13 125/256/13 128/249/13
f 129/257/6 130/258/6 131/259/6 132/260/6
f 133/261/5 134/262/5 135/263/5 136/264/5
f 130/258/3 129/257/3 136/265/3 135/266/3
f 132/267/4 131/268/4 134/269/4 133/270/4
f 131/268/1 130/258/1 135/266/1 134/269/1
f 129/257/2 132/271/2 133/272/2 136/265/2
f 137/273/33 138/274/33 139/275/33 140/276/33
f 141/277/34 142/278/34 143/279/34 144/280/34
f 138/274/3 137/273/3 144/281/3 143/282/3
f 140/283/4 139/284/4 142/285/4 141/286/4
f 139/284/8 138/274/8 143/282/8 142/285/8
f 137/273/7 140/287/7 141/288/7 144/281/7
f 145/289/35 146/290/35 147/291/35 148/292/35
f 149/293/36 150/294/36 151/295/36 152/296/36
f 146/290/3 145/289/3 152/297/3 151/298/3
f 148/299/4 147/300/4 150/301/4 149/302/4
f 147/300/12 146/290/12 151/298/12 150/301/12
f 145/289/11 148/303/11 149/304/11 152/297/11
f 153/305/37 154/306/37 155/307/37 156/308/37
f 157/309/38 158/310/38 159/311/38 160/312/38
f 154/306/3 153/305/3 160/313/3 159/314/3
f 156/315/4 155/316/4 158/317/4 157/318/4
f 155/316/9 154/306/9 159/314/9 158/317/9
f 153/305/10 156/319/10 157/320/10 160/313/10
f 161/321/39 162/322/39 163/323/39 164/324/39
f 165/325/40 166/326/40 167/327/40 168/328/40
f 162/322/3 161/321/3 168/329/3 167/330/3
f 164/331/4 163/332/4 166/333/4 165/334/4
f 163/332/13 162/322/13 167/330/13 166/333/13
f 161/321/14 164/335/14 165/336/14 168/329/14
f 169/337/41 170/338/41 171/339/41 172/340/41
f 173/341/42 174/342/42 175/343/42 176/344/42
f 170/338/3 169/337/3 176/345/3 175/346/3
f 172/347/4 171/348/4 174/349/4 173/350/4
f 171/348/1 170/338/1 175/346/1 174/349/1
f 169/337/2 172/351/2 173/352/2 176/345/2
