# Blender v2.79 (sub 0) OBJ File: 'ryzerhandcrank.blend'
# www.blender.org
mtllib ryzerhandcrank.mtl
o ryzerhandcrank
v -0.031250 0.031250 -0.000000
v -0.031250 0.031250 0.375000
v 0.031250 0.031250 0.375000
v 0.031250 0.031250 0.000000
v 0.031250 -0.031250 0.000000
v 0.031250 -0.031250 0.375000
v -0.031250 -0.031250 0.375000
v -0.031250 -0.031250 -0.000000
v -0.031250 -0.031250 0.312500
v -0.031250 -0.031250 0.375000
v 0.031250 -0.031250 0.375000
v 0.031250 -0.031250 0.312500
v 0.031250 -0.281250 0.312500
v 0.031250 -0.281250 0.375000
v -0.031250 -0.281250 0.375000
v -0.031250 -0.281250 0.312500
v -0.015625 -0.234375 0.375000
v -0.015625 -0.234375 0.500000
v 0.015625 -0.234375 0.500000
v 0.015625 -0.234375 0.375000
v 0.015625 -0.265625 0.375000
v 0.015625 -0.265625 0.500000
v -0.015625 -0.265625 0.500000
v -0.015625 -0.265625 0.375000
vt 1.003906 0.996094
vt 1.015625 0.996094
vt 1.015625 0.998047
vt 1.003906 0.998047
vt 1.015625 0.996094
vt 1.027344 0.996094
vt 1.027344 0.998047
vt 1.015625 0.998047
vt 1.003906 0.994141
vt 1.015625 0.994141
vt 1.029297 0.996094
vt 1.017578 0.996094
vt 1.017578 0.994141
vt 1.029297 0.994141
vt 1.001953 0.996094
vt 1.001953 0.994141
vt 1.035156 0.996094
vt 1.037109 0.996094
vt 1.037109 0.998047
vt 1.035156 0.998047
vt 1.037109 0.996094
vt 1.039062 0.996094
vt 1.039062 0.998047
vt 1.037109 0.998047
vt 1.035156 0.988281
vt 1.037109 0.988281
vt 1.041016 0.996094
vt 1.039062 0.996094
vt 1.039062 0.988281
vt 1.041016 0.988281
vt 1.033203 0.996094
vt 1.033203 0.988281
vt 1.050781 0.996094
vt 1.054688 0.996094
vt 1.054688 0.998047
vt 1.050781 0.998047
vt 1.054688 0.996094
vt 1.058594 0.996094
vt 1.058594 0.998047
vt 1.054688 0.998047
vt 1.050781 0.994141
vt 1.054688 0.994141
vt 1.060547 0.996094
vt 1.056641 0.996094
vt 1.056641 0.994141
vt 1.060547 0.994141
vt 1.048828 0.996094
vt 1.048828 0.994141
vn -0.0000 1.0000 -0.0000
vn 0.0000 -1.0000 0.0000
vn -1.0000 -0.0000 -0.0000
vn 1.0000 0.0000 0.0000
vn 0.0000 0.0000 1.0000
vn 0.0000 -0.0000 -1.0000
usemtl ModelMaterial.001
s off
f 1/1/1 2/2/1 3/3/1 4/4/1
f 5/5/2 6/6/2 7/7/2 8/8/2
f 2/2/3 1/1/3 8/9/3 7/10/3
f 4/11/4 3/12/4 6/13/4 5/14/4
f 3/12/5 2/2/5 7/10/5 6/13/5
f 1/1/6 4/15/6 5/16/6 8/9/6
f 9/17/1 10/18/1 11/19/1 12/20/1
f 13/21/2 14/22/2 15/23/2 16/24/2
f 10/18/3 9/17/3 16/25/3 15/26/3
f 12/27/4 11/28/4 14/29/4 13/30/4
f 11/28/5 10/18/5 15/26/5 14/29/5
f 9/17/6 12/31/6 13/32/6 16/25/6
f 17/33/1 18/34/1 19/35/1 20/36/1
f 21/37/2 22/38/2 23/39/2 24/40/2
f 18/34/3 17/33/3 24/41/3 23/42/3
f 20/43/4 19/44/4 22/45/4 21/46/4
f 19/44/5 18/34/5 23/42/5 22/45/5
f 17/33/6 20/47/6 21/48/6 24/41/6
