# Blender v2.79 (sub 0) OBJ File: 'ryzertrailerhook.blend'
# www.blender.org
mtllib ryzertrailerhook.mtl
o ryzertrailerhook
v -0.031250 -0.031250 -0.468750
v -0.031250 0.062500 -0.468750
v 0.031250 0.068750 -0.468750
v 0.031250 -0.031250 -0.468750
v 0.031250 -0.031250 -0.406250
v 0.031250 0.125000 -0.406250
v -0.031250 0.125000 -0.406250
v -0.031250 -0.031250 -0.406250
v -0.031250 -0.031250 -0.468750
v -0.031250 -0.031250 0.031250
v 0.031250 -0.031250 0.031250
v 0.031250 -0.031250 -0.468750
v 0.031250 -0.093750 -0.468750
v 0.031250 -0.093750 0.031250
v -0.031250 -0.093750 0.031250
v -0.031250 -0.093750 -0.468750
v -0.031250 0.093750 -0.031250
v -0.031250 0.093750 0.031250
v 0.031250 0.093750 0.031250
v 0.031250 0.093750 -0.031250
v 0.031250 -0.031250 -0.031250
v 0.031250 -0.031250 0.031250
v -0.031250 -0.031250 0.031250
v -0.031250 -0.031250 -0.031250
vt 1.861328 0.964844
vt 1.863281 0.964844
vt 1.863281 0.966797
vt 1.861328 0.966797
vt 1.863281 0.964844
vt 1.865234 0.964844
vt 1.865234 0.966797
vt 1.863281 0.966797
vt 1.861328 0.962891
vt 1.863281 0.962891
vt 1.866211 0.964844
vt 1.864258 0.964844
vt 1.864258 0.962891
vt 1.866211 0.962891
vt 1.860352 0.964844
vt 1.860352 0.962891
vt 1.470703 0.917969
vt 1.478516 0.917969
vt 1.478516 0.919922
vt 1.470703 0.919922
vt 1.478516 0.917969
vt 1.486328 0.917969
vt 1.486328 0.919922
vt 1.478516 0.919922
vt 1.470703 0.916016
vt 1.478516 0.916016
vt 1.487305 0.917969
vt 1.479492 0.917969
vt 1.479492 0.916016
vt 1.487305 0.916016
vt 1.469727 0.917969
vt 1.469727 0.916016
vt 1.408203 0.902344
vt 1.409180 0.902344
vt 1.409180 0.904297
vt 1.408203 0.904297
vt 1.409180 0.902344
vt 1.410156 0.902344
vt 1.410156 0.904297
vt 1.409180 0.904297
vt 1.408203 0.898438
vt 1.409180 0.898438
vt 1.411133 0.902344
vt 1.410156 0.902344
vt 1.410156 0.898438
vt 1.411133 0.898438
vt 1.407227 0.902344
vt 1.407227 0.898438
vn 0.0000 0.0000 -1.0000
vn 0.0000 0.0000 1.0000
vn -1.0000 -0.0000 -0.0000
vn 1.0000 0.0000 0.0000
vn -0.0362 0.7245 -0.6883
vn 0.0000 -1.0000 0.0000
vn -0.0000 1.0000 -0.0000
usemtl ModelMaterial
s off
f 1/1/1 2/2/1 3/3/1 4/4/1
f 5/5/2 6/6/2 7/7/2 8/8/2
f 2/2/3 1/1/3 8/9/3 7/10/3
f 4/11/4 3/12/4 6/13/4 5/14/4
f 3/12/5 2/2/5 7/10/5 6/13/5
f 1/1/6 4/15/6 5/16/6 8/9/6
f 9/17/7 10/18/7 11/19/7 12/20/7
f 13/21/6 14/22/6 15/23/6 16/24/6
f 10/18/3 9/17/3 16/25/3 15/26/3
f 12/27/4 11/28/4 14/29/4 13/30/4
f 11/28/2 10/18/2 15/26/2 14/29/2
f 9/17/1 12/31/1 13/32/1 16/25/1
f 17/33/7 18/34/7 19/35/7 20/36/7
f 21/37/6 22/38/6 23/39/6 24/40/6
f 18/34/3 17/33/3 24/41/3 23/42/3
f 20/43/4 19/44/4 22/45/4 21/46/4
f 19/44/2 18/34/2 23/42/2 22/45/2
f 17/33/1 20/47/1 21/48/1 24/41/1
